<svg id="visual" viewBox="0 0 900 100" width="900" height="100" xmlns="http://www.w3.org/2000/svg" xmlns:xlink="http://www.w3.org/1999/xlink" version="1.1"><rect x="0" y="0" width="900" height="100" fill="#ffffff"></rect><path d="M0 45L6 43C12 41 24 37 36 34.8C48 32.7 60 32.3 72 34.7C84 37 96 42 108 40.8C120 39.7 132 32.3 144 30C156 27.7 168 30.3 180 37.2C192 44 204 55 216 56C228 57 240 48 252 47.8C264 47.7 276 56.3 288 61C300 65.7 312 66.3 324 61.2C336 56 348 45 360 41.7C372 38.3 384 42.7 396 45.2C408 47.7 420 48.3 432 47.8C444 47.3 456 45.7 468 41.7C480 37.7 492 31.3 504 27.3C516 23.3 528 21.7 540 27.8C552 34 564 48 576 53.7C588 59.3 600 56.7 612 49.8C624 43 636 32 648 28.7C660 25.3 672 29.7 684 35.2C696 40.7 708 47.3 720 52.8C732 58.3 744 62.7 756 62.2C768 61.7 780 56.3 792 48.8C804 41.3 816 31.7 828 27.7C840 23.7 852 25.3 864 30.2C876 35 888 43 894 47L900 51L900 101L894 101C888 101 876 101 864 101C852 101 840 101 828 101C816 101 804 101 792 101C780 101 768 101 756 101C744 101 732 101 720 101C708 101 696 101 684 101C672 101 660 101 648 101C636 101 624 101 612 101C600 101 588 101 576 101C564 101 552 101 540 101C528 101 516 101 504 101C492 101 480 101 468 101C456 101 444 101 432 101C420 101 408 101 396 101C384 101 372 101 360 101C348 101 336 101 324 101C312 101 300 101 288 101C276 101 264 101 252 101C240 101 228 101 216 101C204 101 192 101 180 101C168 101 156 101 144 101C132 101 120 101 108 101C96 101 84 101 72 101C60 101 48 101 36 101C24 101 12 101 6 101L0 101Z" fill="#92bdff" stroke-linecap="round" stroke-linejoin="miter"></path></svg>