<svg id="visual" viewBox="0 0 900 100" width="900" height="100" xmlns="http://www.w3.org/2000/svg" xmlns:xlink="http://www.w3.org/1999/xlink" version="1.1"><rect x="0" y="0" width="900" height="100" fill="#ffffff"></rect><path d="M0 53L6 55C12 57 24 61 36 63.2C48 65.3 60 65.7 72 63.3C84 61 96 56 108 57.2C120 58.3 132 65.7 144 68C156 70.3 168 67.7 180 60.8C192 54 204 43 216 42C228 41 240 50 252 50.2C264 50.3 276 41.7 288 37C300 32.3 312 31.7 324 36.8C336 42 348 53 360 56.3C372 59.7 384 55.3 396 52.8C408 50.3 420 49.7 432 50.2C444 50.7 456 52.3 468 56.3C480 60.3 492 66.7 504 70.7C516 74.7 528 76.3 540 70.2C552 64 564 50 576 44.3C588 38.7 600 41.3 612 48.2C624 55 636 66 648 69.3C660 72.7 672 68.3 684 62.8C696 57.3 708 50.7 720 45.2C732 39.7 744 35.3 756 35.8C768 36.3 780 41.7 792 49.2C804 56.7 816 66.3 828 70.3C840 74.3 852 72.7 864 67.8C876 63 888 55 894 51L900 47L900 0L894 0C888 0 876 0 864 0C852 0 840 0 828 0C816 0 804 0 792 0C780 0 768 0 756 0C744 0 732 0 720 0C708 0 696 0 684 0C672 0 660 0 648 0C636 0 624 0 612 0C600 0 588 0 576 0C564 0 552 0 540 0C528 0 516 0 504 0C492 0 480 0 468 0C456 0 444 0 432 0C420 0 408 0 396 0C384 0 372 0 360 0C348 0 336 0 324 0C312 0 300 0 288 0C276 0 264 0 252 0C240 0 228 0 216 0C204 0 192 0 180 0C168 0 156 0 144 0C132 0 120 0 108 0C96 0 84 0 72 0C60 0 48 0 36 0C24 0 12 0 6 0L0 0Z" fill="#92bdff" stroke-linecap="round" stroke-linejoin="miter"></path></svg>